# xmcd
#
# Track frame offsets:
#	150
#	16497
#	36525
#	54900
#	76695
#	94342
#	113930
#	130537
#	156352
#	171500
#	196210
#
# Disc length: 2879 seconds
#
# Revision: 0
# Processed by: cddbd v1.4PL0 Copyright (c) Steve Scherf et al.
# Submitted via: audiograbber 1.80
#
DISCID=8c0b3d0b
DTITLE=Paul Cotton - Firebird
DYEAR=1900
DGENRE=
TTITLE0=Woman with a Broken Heart
TTITLE1=There's a River
TTITLE2=Firebird
TTITLE3=Not out of Mind
TTITLE4=Bad Weather
TTITLE5=Across a Painted Sky
TTITLE6=Do what You Do
TTITLE7=Carnival
TTITLE8=All the Way to You
TTITLE9=Ride the Country
TTITLE10=Let the Wind Blow
EXTD=
EXTT0=
EXTT1=
EXTT2=
EXTT3=
EXTT4=
EXTT5=
EXTT6=
EXTT7=
EXTT8=
EXTT9=
EXTT10=
PLAYORDER=
